# xmcd CD database file
#
# Track frame offsets:
#	150
#	25119
#	55325
#	82460
#	109662
#	128968
#	157562
#	182224
#	204028
#
# Disc length: 3337 seconds
#
# Revision: 1
# Processed by: cddbd v1.5.1PL2 Copyright (c) Steve Scherf et al.
# Submitted via: CDex 1.51
#
DISCID=6e0d0709
DTITLE=Fabian Kallerdahl Galore - Maxi Music
DYEAR=2006
DGENRE=Jazz
TTITLE0=Jazz
TTITLE1=Waltz of plenty
TTITLE2=49th 2nd longst
TTITLE3=The nearness of you
TTITLE4=Instigator of rebellion
TTITLE5=Ragga-excerpts
TTITLE6=American romance
TTITLE7=Auge für Auge macht die Welt blind
TTITLE8=The Gothenburg-agreement
EXTD=YEAR: 2006
EXTT0=
EXTT1=
EXTT2=
EXTT3=
EXTT4=
EXTT5=
EXTT6=
EXTT7=
EXTT8=
PLAYORDER=
